<svg xmlns="http://www.w3.org/2000/svg" width="512" height="512" viewBox="0 0 393.35 393.35"><title>SEMLA</title><defs><clipPath id="a"><path d="M0 225h314.33V0H0Z"/></clipPath><clipPath id="b"><path d="M28.641 185.88v.001s-16.729-15.108 2.002-26.412c7.261-4.381 9.28-2.801 19.778-11.64 4.756-4.006 10.013-3.004 14.019.75l1.502 1.502c3.756 4.005 4.757 9.262.752 14.019-8.84 10.498-7.261 12.517-11.642 19.777-4.056 6.723-8.604 8.878-12.767 8.878-7.435.001-13.644-6.875-13.644-6.875"/></clipPath><clipPath id="c"><path d="M0 225h314.33V0H0Z"/></clipPath><clipPath id="d"><path d="M259.28 183.52c-4.381-7.26-2.802-9.28-11.642-19.778-4.005-4.756-3.003-10.014.752-14.019l1.502-1.501c4.006-3.755 9.263-4.757 14.02-.751 10.497 8.84 12.517 7.26 19.777 11.641 18.731 11.303 2.003 26.411 2.003 26.411l-.001-.001s-6.209 6.876-13.644 6.876c-4.163-.001-8.71-2.156-12.767-8.878"/></clipPath><clipPath id="e"><path d="M0 225h314.33V0H0Z"/></clipPath><clipPath id="f"><path d="M194.74 135.76a280 280 0 0 0 5.094-3.92c.397-.312.598-.81.528-1.31l-3.699-26.274q5.451-.594 10.688-1.323l5.763 30.202a311 311 0 0 1-18.348 2.848z"/></clipPath><clipPath id="h"><path d="m118.51 135.96.019-.144a274 274 0 0 0 5.896-2.559c.461-.205.776-.639.83-1.141l2.79-26.044q5.58.29 11.304.437l-.419 7.468q-.597 6.148-1.216 12.294a1.42 1.42 0 0 0 1.41 1.558c.627 0 1.194-.418 1.365-1.042a743 743 0 0 0 3.188-12.045 360 360 0 0 0 4.258-8.094 445 445 0 0 0 19.015-.278 360 360 0 0 0 4.332 8.27 680 680 0 0 0 3.521 12.027 1.42 1.42 0 0 0 1.639.977 1.416 1.416 0 0 0 1.124-1.541c-.447-4.095-.887-8.189-1.314-12.226l-.511-7.909q5.711-.323 11.253-.79l3.61 31.209c-7.395.82-14.892 1.38-22.322 1.666a451 451 0 0 1-7.973-19.689q-.703-4.795-1.362-9.594a1.416 1.416 0 0 0-1.403-1.223h-.006a1.416 1.416 0 0 0-1.398 1.235q-.619 4.803-1.281 9.602a448 448 0 0 1-7.905 19.754 312 312 0 0 1-28.444-2.178"/></clipPath><clipPath id="j"><path d="M241.61 126.2a288 288 0 0 0 4.753-4.924 1.41 1.41 0 0 0 .19-1.69 661 661 0 0 1-12.181-21.613c3.4-.796 6.678-1.643 9.83-2.531a1069 1069 0 0 0 8.83 17.596 1.417 1.417 0 0 0 1.757.677q1.33-.5 2.651-1.012c.618-.239.987-.876.889-1.531a815 815 0 0 0-3.151-19.191 133 133 0 0 0 9.917-3.916 647 647 0 0 1 4.331 28.88 311 311 0 0 1-27.778 9.388z"/></clipPath><clipPath id="l"><path d="M37.217 114.51a294 294 0 0 1-4.828-8.234l7.598-16.824c9.632 3.945 21.346 7.363 34.631 10.089a256 256 0 0 1-7.018 2.14 288 288 0 0 1-16.168-5.664 1.42 1.42 0 0 0-1.826.806l-2.747 7.011c-3.657-.411-7.34-.901-10.965-1.455a1.417 1.417 0 0 0-.782 2.698 304 304 0 0 0 22.856 8.925 1.43 1.43 0 0 0 1.082-.066c.337-.164.596-.457.718-.811l1.117-3.245a300 300 0 0 0 11.631 3.68l-1.896 6.567a280 280 0 0 1-10.324 2.934 311 311 0 0 1-23.079-8.551"/></clipPath><clipPath id="n"><path d="M73.033 126.87q3.74-13.091 7.477-26.184c8.538 1.567 17.652 2.858 27.219 3.834.706.125 1.41.27 2.114.388l-1.186 7.275a289 289 0 0 1-16.591-3.29 1.42 1.42 0 0 0-1.696 1.064l-1.536 6.703a289 289 0 0 1-10.785-.359q-.037-.002-.075-.002a1.417 1.417 0 0 0-.369 2.783 303 303 0 0 0 31.786 6.792 314 314 0 0 0 5.043 9.072l-.063.477a311 311 0 0 1-41.338-8.553"/></clipPath><linearGradient id="g" x2="1" gradientTransform="matrix(0 33.05 33.05 0 203.92 102.93)" gradientUnits="userSpaceOnUse"><stop offset="0" stop-color="#a6a9af"/><stop offset="1" stop-color="#fff"/></linearGradient><linearGradient id="i" x2="1" gradientTransform="matrix(0 32.96 32.96 0 154.56 105.18)" gradientUnits="userSpaceOnUse"><stop offset="0" stop-color="#a6a9af"/><stop offset="1" stop-color="#fff"/></linearGradient><linearGradient id="k" x2="1" gradientTransform="matrix(0 38.268 38.268 0 251.9 88.061)" gradientUnits="userSpaceOnUse"><stop offset="0" stop-color="#a6a9af"/><stop offset="1" stop-color="#fff"/></linearGradient><linearGradient id="m" x2="1" gradientTransform="matrix(0 33.609 33.609 0 53.504 89.453)" gradientUnits="userSpaceOnUse"><stop offset="0" stop-color="#a6a9af"/><stop offset="1" stop-color="#fff"/></linearGradient><linearGradient id="o" x2="1" gradientTransform="matrix(0 34.737 34.737 0 93.733 100.69)" gradientUnits="userSpaceOnUse"><stop offset="0" stop-color="#a6a9af"/><stop offset="1" stop-color="#fff"/></linearGradient></defs><g clip-path="url(#a)" transform="matrix(1.3333 0 0 -1.3333 -12.878 346.676)"><path fill="#092a56" d="M41.864 163.04C85.83 36.1 156.924 20.86 156.924 20.86s71.09 15.246 115.06 142.18c0 0-43.966 37.229-115.94 37.229S41.874 163.04 41.874 163.04"/><path fill="#c01e30" d="M109.93 73.546s44.46 15.96 97.661-1.14c0 0-20.14-25.46-47.121-31.16-26.98-5.7-50.54 32.3-50.54 32.3"/><path fill="#eaaa01" d="M187.96 58.186c17.814 15.34 43.005 44.749 63.559 98.416-16.163 10.121-49.59 26.644-95.488 26.644-33.709 0-60.033-9.074-76.18-16.687-7.256-3.421-13.15-6.846-17.62-9.733 20.567-53.811 45.8-83.275 63.644-98.64 13.827-11.906 25.438-17.324 31.042-19.472 5.605 2.148 17.216 7.566 31.043 19.472m-31.043-28.493c-4.91 1.564-19.157 7.029-36.595 22.045-19.473 16.767-46.87 49.068-68.389 108.36 4.663 3.379 12.906 8.797 24.289 14.163 16.934 7.984 44.526 17.5 79.809 17.5 54.904 0 93.106-22.919 105.83-31.785-21.513-59.208-48.886-91.477-68.345-108.23-17.439-15.016-31.685-20.481-36.596-22.045"/><path fill="#c01e30" d="M211.77 83.571V70.125c16.336 18.966 34.709 47.519 50.088 89.846-12.642 8.81-50.455 31.488-104.81 31.771v-8.508c45.37-.244 78.427-16.587 94.469-26.633-12.44-32.479-26.576-56.062-39.749-73.03"/><path fill="#fff" d="M251.27 148.57c-18.04 10.408-51.275 25.095-95.234 25.095-35.282 0-62.874-9.517-79.808-17.5a167 167 0 0 1-10.498-5.409 70 70 0 0 0 3.713-7.673 159 159 0 0 0 10.414 5.385c16.147 7.613 42.471 16.687 76.179 16.687 40.316 0 71.005-12.747 88.828-22.707 1.935 2.185 4.1 4.209 6.406 6.122"/><path fill="#052951" d="M175.57 45.513c0-10.857-8.801-19.658-19.658-19.658s-19.658 8.801-19.658 19.658 8.801 19.658 19.658 19.658 19.658-8.801 19.658-19.658"/><path fill="#fff" d="M171.78 45.513c0-8.765-7.106-15.871-15.871-15.871s-15.872 7.106-15.872 15.871 7.106 15.871 15.872 15.871 15.871-7.106 15.871-15.871"/><path fill="#7f8ca3" d="M156.93 61.349c6.201-2 10.688-7.816 10.688-14.683 0-8.521-6.907-15.428-15.428-15.428-1.528 0-3.004.226-4.398.64a15.8 15.8 0 0 1 8.121-2.236c8.766 0 15.872 7.106 15.872 15.872 0 8.423-6.564 15.31-14.855 15.835"/><path fill="#092a56" d="M33.422 147.83c2.991-1.256 5.353-2.249 11.06-7.055 3.681-3.099 7.977-4.738 12.423-4.738h.001c4.924 0 9.838 2.065 13.839 5.816q.107.1.211.204l1.502 1.501q.107.107.209.216c7.309 7.795 7.742 18.349 1.078 26.262-4.806 5.707-5.798 8.07-7.055 11.061 0 0-3.553 9.832-4.616 12.905-1.064 3.073-13.356 20.92-38.412.473s-9.632-37.82-5.732-39.593 15.492-7.052 15.492-7.052"/><path fill="#a6a9af" d="M65.942 150.08c3.755 4.006 4.757 9.263.751 14.019-8.84 10.498-7.26 12.518-11.641 19.778-11.303 18.73-26.412 2.003-26.412 2.003v.001s-16.728-15.109 2.003-26.412c7.26-4.381 9.28-2.801 19.777-11.641 4.757-4.006 10.014-3.004 14.02.751z"/></g><g fill="#052951" clip-path="url(#b)" transform="matrix(1.3333 0 0 -1.3333 -12.878 346.676)"><path d="m3.91 178.37 5.135-4.887 5.149.527.272 5.169-5.135 4.887-5.149-.527zm4.62-6.392-6.098 5.804.374 7.067 7.04.722 6.098-5.805-.373-7.067z"/><path d="m10.329 185.11 5.134-4.887 5.149.526.273 5.17-5.135 4.886-5.149-.526zm4.62-6.392-6.098 5.804.373 7.067 7.041.721 6.097-5.804-.373-7.067z"/><path d="m16.748 191.85 5.134-4.887 5.149.526.273 5.169-5.135 4.887-5.149-.526zm4.62-6.392-6.098 5.804.374 7.067 7.04.721 6.097-5.804-.373-7.067z"/><path d="m23.167 198.6 5.134-4.887 5.149.527.273 5.169-5.135 4.887-5.149-.527zm4.62-6.392-6.098 5.804.374 7.067 7.04.722 6.097-5.805-.373-7.067z"/><path d="m29.586 205.34 5.134-4.887 5.15.526.272 5.169-5.135 4.887-5.149-.526zm4.62-6.392-6.098 5.804.374 7.067 7.04.721 6.097-5.804-.372-7.067zM2.783 160.16l5.135-4.887 5.149.526.272 5.169-5.134 4.887-5.15-.526zm4.62-6.392-6.098 5.804.374 7.067 7.04.721 6.098-5.804-.373-7.067z"/><path d="m9.202 166.9 5.134-4.887 5.149.527.273 5.169-5.135 4.886-5.149-.526zm4.62-6.392-6.098 5.804.373 7.067 7.041.721 6.097-5.804-.373-7.067z"/><path d="m15.621 173.65 5.134-4.887 5.149.526.273 5.169-5.135 4.887-5.149-.526zm4.62-6.392-6.098 5.804.374 7.067 7.04.721 6.097-5.804-.373-7.067z"/><path d="m22.04 180.39 5.134-4.887 5.149.527.273 5.169-5.135 4.887-5.149-.527zm4.62-6.392-6.098 5.804.374 7.068 7.04.721 6.097-5.805-.373-7.067z"/><path d="m28.459 187.13 5.134-4.887 5.15.526.272 5.17-5.135 4.886-5.149-.526zm4.62-6.392-6.098 5.804.374 7.067 7.04.721 6.097-5.804-.372-7.067z"/><path d="m34.878 193.88 5.135-4.887 5.149.526.272 5.169-5.135 4.887-5.149-.526zm4.62-6.392-6.098 5.804.374 7.067 7.04.721 6.098-5.804-.373-7.067z"/><path d="m41.297 200.62 5.134-4.887 5.149.527.273 5.169-5.135 4.887-5.149-.527zm4.62-6.392-6.098 5.804.373 7.067 7.041.722 6.097-5.805-.373-7.067zM8.022 148.75l5.134-4.887 5.15.526.272 5.169-5.135 4.887-5.149-.526zm4.62-6.392-6.098 5.804.373 7.067 7.041.721 6.097-5.804-.373-7.067z"/><path d="m14.441 155.49 5.134-4.887 5.149.527.273 5.169-5.135 4.887-5.149-.527zm4.62-6.392-6.098 5.804.373 7.067 7.041.722 6.097-5.805-.373-7.067z"/><path d="m20.86 162.23 5.134-4.887 5.149.526.273 5.169-5.135 4.887-5.149-.526zm4.62-6.392-6.098 5.804.374 7.067 7.04.721 6.097-5.804-.373-7.067z"/><path d="m27.279 168.98 5.134-4.887 5.15.526.272 5.169-5.135 4.887-5.149-.526zm4.62-6.392-6.098 5.804.374 7.067 7.04.721 6.097-5.804-.372-7.067z"/><path d="m33.698 175.72 5.134-4.887 5.15.527.272 5.169-5.135 4.886-5.149-.526zm4.62-6.392-6.098 5.804.374 7.067 7.04.721 6.098-5.804-.373-7.067z"/><path d="m40.118 182.46 5.134-4.887 5.149.526.273 5.169-5.135 4.887-5.149-.526zm4.62-6.392-6.098 5.804.373 7.067 7.041.721 6.097-5.804-.373-7.067z"/><path d="m46.536 189.21 5.134-4.887 5.149.527.273 5.169-5.135 4.887-5.149-.527zm4.62-6.392-6.098 5.804.373 7.067 7.041.722 6.097-5.805-.373-7.067zM19.733 144.02l5.134-4.887 5.149.527.273 5.169-5.135 4.886-5.149-.526zm4.62-6.392-6.098 5.804.374 7.067 7.04.721 6.097-5.804-.373-7.067z"/><path d="m26.152 150.77 5.134-4.887 5.15.526.272 5.169-5.135 4.887-5.149-.526zm4.62-6.392-6.098 5.804.374 7.067 7.04.721 6.097-5.804-.372-7.067z"/><path d="m32.571 157.51 5.135-4.887 5.149.527.272 5.169-5.135 4.887-5.149-.527zm4.62-6.392-6.098 5.804.374 7.067 7.04.722 6.098-5.805-.373-7.067z"/><path d="m38.99 164.25 5.134-4.887 5.149.526.273 5.169-5.135 4.887-5.149-.526zm4.62-6.392-6.098 5.804.373 7.067 7.041.721 6.097-5.804-.373-7.067z"/><path d="m45.409 171 5.134-4.887 5.149.526.273 5.169-5.135 4.887-5.149-.526zm4.62-6.392-6.098 5.804.374 7.067 7.04.721 6.097-5.804-.373-7.067z"/><path d="m51.828 177.74 5.134-4.887 5.149.527.273 5.169-5.135 4.886-5.149-.526zm4.62-6.392-6.098 5.804.374 7.067 7.04.721 6.097-5.804-.373-7.067z"/><path d="m58.247 184.48 5.134-4.887 5.15.526.272 5.169-5.135 4.887-5.149-.526zm4.62-6.392-6.098 5.804.374 7.067 7.04.721 6.097-5.804-.372-7.067zM24.972 132.61l5.134-4.887 5.15.527.272 5.169-5.135 4.887-5.149-.527zm4.62-6.392-6.098 5.804.374 7.067 7.04.722 6.097-5.805-.372-7.067z"/><path d="m31.391 139.36 5.134-4.887 5.15.526.272 5.169-5.135 4.887-5.149-.526zm4.62-6.392-6.098 5.804.374 7.067 7.04.721 6.097-5.804-.372-7.067z"/><path d="m37.81 146.1 5.134-4.887 5.149.527.273 5.169-5.135 4.887-5.149-.527zm4.62-6.392-6.098 5.804.373 7.068 7.041.721 6.097-5.805-.373-7.067z"/><path d="m44.229 152.84 5.134-4.887 5.149.526.273 5.17-5.135 4.886-5.149-.526zm4.62-6.392-6.098 5.804.373 7.067 7.041.721 6.097-5.804-.373-7.067z"/><path d="m50.648 159.59 5.134-4.887 5.149.526.273 5.169-5.135 4.887-5.149-.526zm4.62-6.392-6.098 5.804.374 7.067 7.04.721 6.097-5.804-.373-7.067z"/><path d="m57.067 166.33 5.134-4.887 5.15.527.272 5.169-5.135 4.887-5.149-.527zm4.62-6.392-6.098 5.804.374 7.067 7.04.722 6.097-5.805-.372-7.067z"/><path d="m63.486 173.07 5.134-4.887 5.15.526.272 5.169-5.135 4.887-5.149-.526zm4.62-6.392-6.098 5.804.374 7.067 7.04.721 6.097-5.804-.372-7.067zM36.683 127.89l5.134-4.887 5.149.526.273 5.169-5.135 4.887-5.149-.526zm4.62-6.392-6.098 5.804.373 7.067 7.041.721 6.097-5.804-.373-7.067z"/><path d="m43.102 134.63 5.134-4.887 5.149.527.273 5.169-5.135 4.887-5.149-.527zm4.62-6.392-6.098 5.804.373 7.067 7.041.722 6.097-5.805-.373-7.067z"/><path d="m49.521 141.38 5.134-4.887 5.149.526.273 5.169-5.135 4.887-5.149-.526zm4.62-6.392-6.098 5.804.374 7.067 7.04.721 6.097-5.804-.373-7.067z"/><path d="m55.94 148.12 5.134-4.887 5.15.527.272 5.169-5.135 4.887-5.149-.527zm4.62-6.392-6.098 5.804.374 7.068 7.04.721 6.097-5.805-.372-7.067z"/><path d="m62.359 154.86 5.134-4.887 5.15.526.272 5.17-5.135 4.886-5.149-.526zm4.62-6.392-6.098 5.804.374 7.067 7.04.721 6.097-5.804-.372-7.067z"/><path d="m68.778 161.61 5.134-4.887 5.149.526.273 5.169-5.135 4.887-5.149-.526zm4.62-6.392-6.098 5.804.373 7.067 7.041.721 6.097-5.804-.373-7.067z"/><path d="m75.197 168.35 5.134-4.887 5.149.527.273 5.169-5.135 4.887-5.149-.527zm4.62-6.392-6.098 5.804.373 7.067 7.041.722 6.097-5.805-.373-7.067zM41.922 116.48l5.134-4.887 5.149.526.273 5.169-5.135 4.887-5.149-.526zm4.62-6.392-6.098 5.804.373 7.067 7.041.721 6.097-5.804-.373-7.067z"/><path d="m48.341 123.22 5.134-4.887 5.149.527.273 5.169-5.135 4.887-5.149-.527zm4.62-6.392-6.098 5.804.374 7.067 7.04.722 6.097-5.805-.373-7.067z"/><path d="m54.76 129.96 5.134-4.887 5.15.526.272 5.169-5.135 4.887-5.149-.526zm4.62-6.392-6.098 5.804.374 7.067 7.04.721 6.097-5.804-.372-7.067z"/><path d="m61.179 136.71 5.134-4.887 5.15.526.272 5.169-5.135 4.887-5.149-.526zm4.62-6.392-6.098 5.804.374 7.067 7.04.721 6.097-5.804-.372-7.067z"/><path d="m67.598 143.45 5.135-4.887 5.149.527.272 5.169-5.135 4.886-5.149-.526zm4.62-6.392-6.098 5.804.374 7.067 7.04.721 6.098-5.804-.373-7.067z"/><path d="m74.017 150.19 5.134-4.887 5.149.526.273 5.169-5.135 4.887-5.149-.526zm4.62-6.392-6.098 5.804.373 7.067 7.041.721 6.097-5.804-.373-7.067z"/><path d="m80.436 156.94 5.134-4.887 5.149.527.273 5.169-5.135 4.887-5.149-.527zm4.62-6.392-6.098 5.804.374 7.067 7.04.722 6.097-5.805-.373-7.067zM53.633 111.75l5.134-4.887 5.15.527.272 5.169-5.135 4.886-5.149-.526zm4.62-6.392-6.098 5.804.374 7.067 7.04.721 6.097-5.804-.372-7.067z"/><path d="m60.052 118.5 5.134-4.887 5.15.526.272 5.169-5.135 4.887-5.149-.526zm4.62-6.392-6.098 5.804.374 7.067 7.04.721 6.097-5.804-.372-7.067z"/><path d="m66.471 125.24 5.134-4.887 5.149.527.273 5.169-5.135 4.887-5.149-.527zm4.62-6.392-6.098 5.804.373 7.067 7.041.722 6.097-5.805-.373-7.067z"/><path d="m72.89 131.99 5.134-4.887 5.149.526.273 5.169-5.135 4.887-5.149-.526zm4.62-6.392-6.098 5.804.373 7.067 7.041.721 6.097-5.804-.373-7.067z"/><path d="m79.309 138.73 5.134-4.887 5.149.526.273 5.169-5.135 4.887-5.149-.526zm4.62-6.392-6.098 5.804.374 7.067 7.04.721 6.097-5.804-.373-7.067z"/><path d="m85.728 145.47 5.134-4.887 5.15.527.272 5.169-5.135 4.887-5.149-.527Zm4.62-6.392-6.098 5.804.374 7.067 7.04.722 6.097-5.805-.372-7.067z"/><path d="m92.147 152.22 5.134-4.887 5.15.526.272 5.169-5.135 4.887-5.149-.526zm4.62-6.392-6.098 5.804.374 7.067 7.04.721 6.097-5.804-.372-7.067z"/></g><g clip-path="url(#c)" transform="matrix(1.3333 0 0 -1.3333 -12.878 346.676)"><path fill="#eaaa01" d="M38.407 196.59s.209.088.626.236c.412.142 1.029.307 1.831.47.801.155 1.794.306 2.948.303l.896-.001.947-.092c.656-.033 1.327-.206 2.035-.358.703-.171 1.413-.45 2.153-.721l1.07-.553.549-.286c.174-.112.341-.237.514-.357l1.045-.747c.35-.256.633-.593.958-.893.308-.315.652-.611.931-.963l.808-1.09c.576-.72.947-1.563 1.385-2.382.481-.804.712-1.711 1.042-2.586.632-1.717 1.067-3.498 1.718-5.159a43 43 0 0 1 .966-2.513q.495-1.256 1.054-2.469c.716-1.628 1.502-3.196 2.286-4.705 1.578-3.011 3.185-5.766 4.486-8.186.649-1.21 1.232-2.33 1.684-3.356a23 23 0 0 0 1.057-2.703l.307-1.03.156-.78.129-.647a.106.106 0 0 0-.207-.048l-.003.011-.164.63-.197.754-.36.992a22.5 22.5 0 0 1-1.191 2.591c-.503.98-1.143 2.053-1.856 3.214-1.429 2.321-3.209 4.979-4.921 7.964-.859 1.489-1.726 3.046-2.528 4.671a48 48 0 0 0-1.184 2.469 44 44 0 0 0-1.106 2.54c-.769 1.702-1.276 3.459-1.996 5.07-.349.785-.622 1.602-1.07 2.303-.417.718-.77 1.468-1.294 2.071l-.695.96c-.242.304-.53.56-.784.844-.269.266-.5.575-.793.802l-.853.692c-.142.114-.277.234-.421.341l-.456.274-.893.542c-.619.29-1.215.601-1.823.811-1.218.415-2.387.726-3.455.837-1.063.16-2.013.178-2.798.195-.786.001-1.404-.061-1.829-.091-.417-.04-.647-.076-.647-.076a.107.107 0 0 0-.057.205m-19.705-18.7s-.057-.225-.137-.637c-.07-.42-.19-1.029-.263-1.811-.058-.784-.13-1.731-.071-2.805.009-1.074.208-2.267.506-3.518.152-.625.405-1.249.635-1.892l.456-.94.229-.48c.093-.153.2-.3.299-.451l.609-.915c.197-.314.483-.572.723-.866.258-.279.486-.59.766-.86l.889-.783c.551-.578 1.265-1.001 1.94-1.484.656-.512 1.443-.861 2.192-1.283 1.535-.87 3.236-1.54 4.858-2.467a44 44 0 0 0 2.424-1.341q1.2-.677 2.345-1.412c1.542-.952 3.01-1.963 4.412-2.959 2.809-1.987 5.287-4.011 7.462-5.653 1.089-.819 2.095-1.558 3.024-2.151a22 22 0 0 1 2.466-1.431l.954-.453.732-.267.611-.224.011-.003a.106.106 0 0 0 .063-.136.106.106 0 0 0-.13-.066l-.633.19-.761.229-.997.403a23 23 0 0 0-2.59 1.308c-.978.548-2.038 1.234-3.181 1.994-2.286 1.524-4.877 3.385-7.726 5.241-1.427.923-2.914 1.854-4.467 2.721a46 46 0 0 1-2.358 1.282 43 43 0 0 1-2.41 1.2c-1.593.806-3.324 1.407-4.974 2.199-.839.411-1.721.727-2.476 1.282-.773.513-1.578.963-2.239 1.604l-1.01.908c-.323.31-.585.681-.87 1.018-.268.351-.577.665-.798 1.038l-.644 1.11c-.103.184-.213.362-.307.546l-.234.574-.449 1.118c-.199.762-.41 1.495-.514 2.211-.084.72-.193 1.404-.164 2.06l-.001.952.084.891c.106 1.15.35 2.123.58 2.907.239.782.461 1.381.642 1.778.186.4.294.601.294.601a.106.106 0 0 0 .144.044.11.11 0 0 0 .054-.121"/><path fill="#092a56" d="M280.91 147.47c-2.991-1.256-5.353-2.249-11.06-7.055-3.681-3.099-7.977-4.738-12.423-4.738h-.001c-4.924 0-9.838 2.065-13.839 5.816a8 8 0 0 0-.211.204l-1.502 1.501a9 9 0 0 0-.209.216c-7.309 7.795-7.742 18.349-1.078 26.262 4.806 5.707 5.798 8.07 7.055 11.061 0 0 3.553 9.832 4.616 12.905 1.064 3.073 13.356 20.92 38.412.473s9.632-37.82 5.732-39.593-15.492-7.052-15.492-7.052"/><path fill="#a6a9af" d="M248.39 149.72c-3.755 4.006-4.757 9.263-.751 14.019 8.84 10.498 7.26 12.518 11.641 19.778 11.303 18.73 26.412 2.003 26.412 2.003v.001s16.728-15.109-2.003-26.412c-7.26-4.381-9.28-2.801-19.777-11.641-4.757-4.006-10.014-3.004-14.02.751z"/></g><g fill="#052951" clip-path="url(#d)" transform="matrix(1.3333 0 0 -1.3333 -12.878 346.676)"><path d="m300.14 173.65 5.149-.527 5.134 4.887-.272 5.169-5.15.527-5.134-4.887zm5.663-2.032-7.04.721-.373 7.068 6.098 5.804 7.04-.721.372-7.068z"/><path d="m293.72 180.4 5.149-.526 5.134 4.887-.272 5.169-5.15.526-5.134-4.887zm5.663-2.031-7.04.72-.373 7.068 6.098 5.804 7.04-.721.372-7.067z"/><path d="m287.3 187.14 5.149-.526 5.134 4.886-.272 5.17-5.15.526-5.134-4.887zm5.663-2.031-7.04.72-.373 7.068 6.098 5.804 7.04-.721.372-7.068z"/><path d="m280.88 193.88 5.15-.527 5.134 4.887-.273 5.169-5.149.527-5.134-4.887zm5.664-2.032-7.041.721-.373 7.068 6.098 5.804 7.04-.721.372-7.068z"/><path d="m274.46 200.63 5.149-.526 5.135 4.887-.273 5.169-5.149.526-5.134-4.887zm5.664-2.031-7.041.72-.373 7.068 6.097 5.804 7.041-.721.372-7.067zm21.146-43.159 5.149-.526 5.135 4.886-.272 5.169-5.151.527-5.133-4.887zm5.663-2.031-7.04.72-.372 7.068 6.097 5.804 7.041-.721.372-7.068z"/><path d="m294.85 162.19 5.149-.526 5.135 4.887-.273 5.169-5.15.526-5.133-4.887zm5.663-2.031-7.04.72-.372 7.068 6.097 5.804 7.04-.721.373-7.067z"/><path d="m288.43 168.93 5.149-.526 5.135 4.887-.273 5.169-5.15.526-5.133-4.887zm5.663-2.031-7.04.72-.372 7.068 6.097 5.804 7.04-.721.373-7.067z"/><path d="m282.01 175.67 5.149-.527 5.135 4.887-.273 5.169-5.15.527-5.133-4.887zm5.663-2.032-7.04.721-.373 7.068 6.098 5.804 7.04-.721.373-7.068z"/><path d="m275.59 182.42 5.149-.526 5.135 4.887-.273 5.169-5.149.526-5.134-4.887zm5.664-2.031-7.041.72-.373 7.068 6.097 5.804 7.041-.721.373-7.067z"/><path d="m269.17 189.16 5.149-.526 5.135 4.887-.273 5.169-5.149.526-5.134-4.887zm5.664-2.031-7.041.72-.373 7.068 6.098 5.804 7.04-.721.373-7.067z"/><path d="m262.75 195.9 5.149-.527 5.135 4.887-.273 5.169-5.149.527-5.134-4.887zm5.664-2.032-7.041.721-.373 7.068 6.098 5.804 7.04-.721.373-7.068zm27.616-49.838 5.149-.526 5.135 4.887-.273 5.169-5.15.526-5.133-4.887zm5.663-2.031-7.04.72-.372 7.068 6.097 5.804 7.04-.721.373-7.067z"/><path d="m289.61 150.77 5.149-.527 5.135 4.887-.273 5.169-5.15.527-5.133-4.887zm5.663-2.032-7.04.721-.372 7.068 6.097 5.804 7.04-.721.373-7.068z"/><path d="m283.19 157.52 5.149-.526 5.135 4.887-.273 5.169-5.15.526-5.133-4.887zm5.663-2.031-7.04.72-.372 7.068 6.097 5.804 7.04-.721.373-7.067z"/><path d="m276.77 164.26 5.149-.526 5.135 4.886-.273 5.169-5.15.527-5.133-4.887zm5.663-2.031-7.04.72-.373 7.068 6.097 5.804 7.041-.721.373-7.068z"/><path d="m270.35 171 5.149-.526 5.134 4.887-.272 5.169-5.149.526-5.134-4.887zm5.664-2.031-7.041.72-.373 7.068 6.097 5.804 7.041-.721.372-7.067z"/><path d="m263.93 177.75 5.149-.526 5.135 4.887-.273 5.169-5.149.526-5.134-4.887zm5.664-2.031-7.041.72-.373 7.068 6.098 5.804 7.04-.721.373-7.067z"/><path d="m257.51 184.49 5.149-.527 5.135 4.887-.273 5.169-5.149.527-5.134-4.887zm5.664-2.032-7.041.721-.373 7.068 6.098 5.804 7.04-.721.373-7.068zm21.146-43.148 5.15-.526 5.134 4.887-.272 5.169-5.15.526-5.134-4.887zm5.664-2.031-7.041.72-.372 7.068 6.098 5.804 7.04-.721.372-7.067z"/><path d="m277.9 146.05 5.149-.526 5.135 4.887-.273 5.169-5.149.526-5.134-4.887zm5.663-2.031-7.04.72-.373 7.068 6.098 5.804 7.04-.721.372-7.067z"/><path d="m271.48 152.8 5.149-.527 5.135 4.887-.272 5.169-5.15.527-5.134-4.887zm5.664-2.032-7.041.721-.373 7.068 6.098 5.804 7.041-.721.372-7.068z"/><path d="m265.06 159.54 5.149-.526 5.135 4.887-.273 5.169-5.149.526-5.134-4.887zm5.664-2.031-7.041.72-.373 7.068 6.098 5.804 7.04-.721.373-7.067z"/><path d="m258.64 166.28 5.149-.526 5.135 4.886-.273 5.169-5.149.527-5.134-4.887zm5.664-2.031-7.041.72-.373 7.068 6.097 5.804 7.041-.721.373-7.068z"/><path d="m252.22 173.03 5.149-.526 5.134 4.887-.272 5.169-5.149.526-5.134-4.887zm5.664-2.031-7.041.72-.373 7.068 6.097 5.804 7.041-.721.373-7.067z"/><path d="m245.8 179.77 5.149-.526 5.134 4.887-.272 5.169-5.149.526-5.134-4.887zm5.664-2.031-7.041.72-.373 7.068 6.097 5.804 7.041-.721.373-7.067zM279.08 127.9l5.15-.526 5.134 4.887-.273 5.169-5.149.526-5.134-4.887zm5.664-2.031-7.041.72-.373 7.068 6.098 5.804 7.04-.721.372-7.067z"/><path d="m272.66 134.64 5.149-.526 5.135 4.887-.273 5.169-5.149.526-5.134-4.887zm5.664-2.031-7.041.72-.373 7.068 6.097 5.804 7.041-.721.372-7.067z"/><path d="m266.24 141.38 5.149-.527 5.135 4.887-.273 5.169-5.149.527-5.134-4.887zm5.664-2.032-7.041.721-.373 7.068 6.098 5.804 7.04-.721.373-7.068z"/><path d="m259.82 148.13 5.149-.526 5.135 4.887-.273 5.169-5.149.526-5.134-4.887zm5.664-2.031-7.041.72-.373 7.068 6.098 5.804 7.04-.721.373-7.067z"/><path d="m253.4 154.87 5.149-.526 5.134 4.887-.272 5.169-5.149.526-5.134-4.887zm5.664-2.031-7.041.72-.373 7.068 6.097 5.804 7.041-.721.373-7.067z"/><path d="m246.98 161.61 5.149-.527 5.134 4.887-.272 5.169-5.149.527-5.134-4.887zm5.664-2.032-7.041.721-.373 7.068 6.097 5.804 7.041-.721.373-7.068z"/><path d="m240.56 168.36 5.149-.526 5.134 4.887-.272 5.169-5.149.526-5.134-4.887zm5.664-2.031-7.041.72-.373 7.068 6.097 5.804 7.041-.721.373-7.067zm21.146-43.159 5.149-.526 5.135 4.886-.273 5.17-5.149.526-5.134-4.887zm5.664-2.031-7.041.72-.373 7.068 6.098 5.804 7.04-.721.373-7.068z"/><path d="m260.95 129.92 5.149-.526 5.135 4.887-.273 5.169-5.149.526-5.134-4.887zm5.664-2.031-7.041.72-.373 7.068 6.097 5.804 7.041-.721.373-7.067z"/><path d="m254.53 136.66 5.149-.526 5.134 4.887-.272 5.169-5.149.526-5.134-4.887zm5.664-2.031-7.041.72-.373 7.068 6.097 5.804 7.041-.721.373-7.067z"/><path d="m248.11 143.4 5.149-.526 5.134 4.886-.272 5.169-5.149.527-5.134-4.887zm5.664-2.031-7.041.72-.373 7.068 6.097 5.804 7.041-.721.373-7.068z"/><path d="m241.69 150.15 5.149-.526 5.134 4.887-.272 5.169-5.149.526-5.134-4.887zm5.664-2.031-7.041.72-.373 7.068 6.097 5.804 7.041-.721.373-7.067z"/><path d="m235.27 156.89 5.149-.526 5.135 4.887-.273 5.169-5.149.526-5.134-4.887zm5.664-2.031-7.041.72-.373 7.068 6.098 5.804 7.04-.721.373-7.067z"/><path d="m228.85 163.64 5.149-.527 5.135 4.887-.273 5.169-5.149.527-5.134-4.887zm5.664-2.032-7.041.721-.373 7.068 6.098 5.804 7.04-.721.373-7.068zm27.616-49.848 5.149-.526 5.135 4.887-.273 5.169-5.149.526-5.134-4.887zm5.664-2.031-7.041.72-.373 7.068 6.098 5.804 7.04-.721.373-7.067z"/><path d="m255.71 118.51 5.149-.527 5.134 4.887-.272 5.169-5.149.527-5.134-4.887zm5.664-2.032-7.041.721-.373 7.068 6.097 5.804 7.041-.721.373-7.068z"/><path d="m249.29 125.25 5.149-.526 5.134 4.887-.272 5.169-5.149.526-5.134-4.887zm5.664-2.031-7.041.72-.373 7.068 6.097 5.804 7.041-.721.373-7.067z"/><path d="m242.87 131.99 5.149-.526 5.134 4.886-.272 5.169-5.149.527-5.134-4.887zm5.664-2.031-7.041.72-.373 7.068 6.097 5.804 7.041-.721.373-7.068z"/><path d="m236.45 138.74 5.149-.526 5.135 4.887-.273 5.169-5.149.526-5.134-4.887zm5.664-2.031-7.041.72-.373 7.068 6.098 5.804 7.04-.721.373-7.067z"/><path d="m230.03 145.48 5.149-.526 5.135 4.887-.273 5.169-5.149.526-5.134-4.887zm5.664-2.031-7.041.72-.373 7.068 6.098 5.804 7.04-.721.373-7.067z"/><path d="m223.61 152.22 5.149-.527 5.134 4.887-.272 5.169-5.149.527-5.134-4.887zm5.664-2.032-7.041.721-.373 7.068 6.097 5.804 7.041-.721.373-7.068zm21.146-43.148 5.149-.526 5.134 4.887-.272 5.169-5.149.526-5.134-4.887zm5.664-2.031-7.041.72-.373 7.068 6.097 5.804 7.041-.721.373-7.067z"/><path d="m244 113.78 5.149-.526 5.134 4.887-.272 5.169-5.149.526-5.134-4.887zm5.664-2.031-7.041.72-.373 7.068 6.097 5.804 7.041-.721.373-7.067z"/><path d="m237.58 120.53 5.149-.527 5.135 4.887-.273 5.169-5.149.527-5.134-4.887zm5.664-2.032-7.041.721-.373 7.068 6.098 5.804 7.04-.721.373-7.068z"/><path d="m231.16 127.27 5.149-.526 5.135 4.887-.273 5.169-5.149.526-5.134-4.887zm5.664-2.031-7.041.72-.373 7.068 6.098 5.804 7.04-.721.373-7.067z"/><path d="m224.74 134.01 5.149-.526 5.134 4.886-.272 5.17-5.149.526-5.134-4.887zm5.664-2.031-7.041.72-.373 7.068 6.097 5.804 7.041-.721.373-7.068z"/><path d="m218.32 140.76 5.149-.526 5.134 4.887-.272 5.169-5.149.526-5.134-4.887zm5.664-2.031-7.041.72-.373 7.068 6.097 5.804 7.041-.721.373-7.067z"/><path d="m211.9 147.5 5.149-.526 5.134 4.887-.272 5.169-5.149.526-5.134-4.887zm5.664-2.031-7.041.72-.373 7.068 6.097 5.804 7.041-.721.373-7.067z"/></g><g clip-path="url(#e)" transform="matrix(1.3333 0 0 -1.3333 -12.878 346.676)"><path fill="#eaaa01" d="M275.87 196.03s-.229.036-.647.076c-.425.03-1.042.091-1.828.091-.786-.017-1.735-.035-2.799-.195-1.068-.111-2.237-.422-3.454-.837-.608-.21-1.205-.521-1.824-.812l-.893-.542-.456-.274c-.143-.106-.279-.226-.42-.34l-.854-.692c-.293-.227-.523-.536-.793-.802-.253-.284-.541-.54-.784-.845l-.695-.959c-.524-.603-.877-1.353-1.294-2.071-.448-.701-.72-1.519-1.07-2.303-.72-1.611-1.226-3.368-1.996-5.07a44 44 0 0 0-1.106-2.541 47 47 0 0 0-1.184-2.468c-.801-1.625-1.669-3.182-2.528-4.672-1.712-2.985-3.491-5.643-4.921-7.963-.712-1.162-1.352-2.234-1.855-3.215a22 22 0 0 1-1.191-2.59l-.361-.992-.197-.754-.164-.63-.003-.011a.106.106 0 0 0-.206.047l.128.648.157.78.307 1.03c.242.767.585 1.688 1.056 2.703.453 1.026 1.036 2.146 1.684 3.356 1.301 2.419 2.909 5.175 4.486 8.186.784 1.508 1.57 3.077 2.286 4.705q.56 1.213 1.054 2.468.524 1.247.966 2.514c.652 1.661 1.087 3.442 1.719 5.159.329.875.561 1.782 1.042 2.586.437.819.809 1.662 1.384 2.382l.808 1.09c.279.352.623.647.931.963.325.3.608.637.959.893l1.044.746c.173.12.34.246.514.358l.549.286 1.071.553c.739.271 1.45.55 2.152.721.709.152 1.38.325 2.036.358l.947.091.895.002a15 15 0 0 0 2.949-.303c.801-.163 1.418-.328 1.831-.47.416-.148.625-.236.625-.236a.107.107 0 0 0 .058-.14.11.11 0 0 0-.115-.065m19.96-18.42s.108-.2.294-.601c.18-.397.403-.996.642-1.778a15.2 15.2 0 0 0 .58-2.906l.083-.892-.001-.952c.029-.656-.079-1.34-.164-2.06-.103-.715-.314-1.449-.514-2.211l-.449-1.118-.233-.573c-.095-.184-.204-.363-.307-.546l-.644-1.11c-.222-.374-.531-.687-.799-1.039-.285-.337-.547-.707-.87-1.018l-1.009-.908c-.662-.641-1.466-1.09-2.24-1.603-.755-.555-1.636-.871-2.476-1.282-1.649-.792-3.381-1.394-4.973-2.199a43 43 0 0 1-2.411-1.2 47 47 0 0 1-2.357-1.283c-1.553-.867-3.041-1.798-4.468-2.721-2.848-1.855-5.439-3.716-7.725-5.24-1.144-.761-2.203-1.447-3.181-1.995a23 23 0 0 0-2.591-1.307l-.996-.403-.762-.23-.633-.189a.106.106 0 0 0-.067.201l.011.004.611.223.732.268.954.452c.708.35 1.548.819 2.466 1.431.929.594 1.936 1.332 3.025 2.152 2.175 1.642 4.652 3.665 7.462 5.652 1.401.996 2.869 2.007 4.411 2.959q1.145.735 2.345 1.412 1.183.704 2.425 1.342c1.621.927 3.323 1.597 4.858 2.467.748.422 1.536.77 2.191 1.283.676.482 1.389.905 1.94 1.484l.889.783c.281.27.508.581.767.86.239.293.525.552.723.865l.608.915c.1.152.207.298.299.451l.23.48.455.941c.231.643.484 1.266.636 1.892.298 1.251.496 2.444.506 3.518.058 1.073-.014 2.021-.071 2.804-.074.783-.193 1.392-.264 1.812-.079.411-.137.636-.137.636a.11.11 0 0 0 .078.131.11.11 0 0 0 .121-.054"/><path fill="#092a56" d="M274.36 126.43a322 322 0 0 1-31.196 10.526 9.2 9.2 0 0 1-7.006-.836 9.22 9.22 0 0 1-4.363-5.547l-.643-2.286a9.22 9.22 0 0 1 2.335-8.998l.373-.377c-4.345-7.56-9.286-15.234-13.339-22.966-1.402.34-2.076.671-3.487.99l6.791 35.597a9.217 9.217 0 0 1-7.328 10.784 322 322 0 0 1-21.869 3.394 9 9 0 0 1-1.099.066c-.049 0-.097-.006-.145-.006-.049.006-.097.018-.147.024a322 322 0 0 1-25.54 1.924 9.22 9.22 0 0 1-8.778-5.535q-.645-1.484-1.283-2.976-.64 1.516-1.288 3.022a9.22 9.22 0 0 1-8.718 5.569 322 322 0 0 1-31.866-2.462c-.216-.028-.426-.073-.637-.115a9 9 0 0 1-.743-.064 322 322 0 0 1-45.62-9.439 9.22 9.22 0 0 1-5.027-3.576c-.383.102-.765.214-1.148.314a9.24 9.24 0 0 1-5.179-.15 322 322 0 0 1-24.717-9.159 9.2 9.2 0 0 1-4.312-3.702 303 303 0 0 1-5.613-9.583 9.22 9.22 0 0 1-.364-8.307l8.676-19.215a9.22 9.22 0 0 1 5.135-4.827 9.22 9.22 0 0 1 .225-7.043l4.134-9.155a9.22 9.22 0 0 1 6.416-5.208 220 220 0 0 0 10.114-2.483 9.24 9.24 0 0 1 5.921.374 247 247 0 0 0 17.833 6.547 9.2 9.2 0 0 1 3.98 2.577 9 9 0 0 1 2.075-.243c.827 0 1.667.112 2.502.347a246 246 0 0 0 34.831 7.123c.205.027.405.07.606.11.157.012.313.01.469.03a246 246 0 0 0 17.325 1.589 9.22 9.22 0 0 1 7.363 4.417 9.22 9.22 0 0 1 7.512-3.876h.001a9.22 9.22 0 0 1 7.402 3.723 9.22 9.22 0 0 1 7.27-4.389c4.115-.265 8.277-.64 12.372-1.114a9 9 0 0 1 1.06-.061c.681 0 1.355.083 2.014.231a9.2 9.2 0 0 1 2.923-.938 246 246 0 0 0 26.765-5.299c.166-.043.332-.062.498-.095.179-.059.355-.126.538-.173a246 246 0 0 0 12.904-3.753 9.2 9.2 0 0 1 2.815-.441c1.74 0 3.435.494 4.891 1.404a9.21 9.21 0 0 1 5.401-5.58 246 246 0 0 0 12.928-5.398 9.21 9.21 0 0 1 7.933.165 9.22 9.22 0 0 1 4.866 6.268 655 655 0 0 1 10.014 58.548 9.22 9.22 0 0 1-5.756 9.712"/><path fill="#fff" d="M60.253 124.54a277 277 0 0 0 11.514-3.28l2.501-8.66a296 296 0 0 1-14.262-4.512l-1.577 4.58a301 301 0 0 1-22.749-8.884q6.074.927 12.101 1.582l3.144-8.022a289 289 0 0 0 16.655 5.821q5.242-1.5 10.334-3.192l6.135-21.247a244 244 0 0 1-6.032-8.408 254 254 0 0 1-18.504-6.793q-5.19 1.406-10.54 2.587l-4.133 9.155a271 271 0 0 0 12.647 5.33l1.971-5.028a266 266 0 0 0 10.425 3.837l-4.046 11.751a279 279 0 0 1-16.321-6.202q-4.955 1.186-10.036 2.181l-8.676 19.216a291 291 0 0 0 5.443 9.292 311 311 0 0 0 24.006 8.896m55.337 12.48.312-2.362a312 312 0 0 1-5.593-10.069 300 300 0 0 1-32.333-6.87q6.02.314 11.984.376l1.791-7.818a289 289 0 0 0 18.076 3.54l1.642-10.071a279 279 0 0 1-17.438-3.415l2.882-12.579a266 266 0 0 0 18.569 3.566 282 282 0 0 0 7.253-8.383l.322-2.441a254 254 0 0 1-36.14-7.391 87415 87415 0 0 1-15.635 54.75 311 311 0 0 0 44.308 9.167m76.59.62-6.552-56.639q-6.408.74-12.838 1.156l2.055 31.817q.65 6.145 1.32 12.288a670 670 0 0 1-3.556-12.153 362 362 0 0 1-15.085-31.267 356 356 0 0 1-15.168 31.383 742 742 0 0 1-3.226 12.194q.62-6.149 1.216-12.299l1.786-31.834a254 254 0 0 1-17.977-1.649l-.312 2.442a242 242 0 0 0 4.806 4.122l-4.795 44.77a286 286 0 0 1-6.619 2.861l-.302 2.363a312 312 0 0 0 30.95 2.392 448 448 0 0 0 8.364-20.849q.674-4.883 1.304-9.77.67 4.881 1.386 9.759a451 451 0 0 0 8.437 20.782c8.285-.292 16.56-.915 24.806-1.869m22.59-3.38-8.49-44.501a266 266 0 0 0 16.27-3.636l-2.931-11.422a254 254 0 0 1-27.771 5.498l7.111 50.524a292 292 0 0 1-5.724 4.39l.294 2.444a311 311 0 0 0 21.241-3.297m28.72-43.455a277 277 0 0 0 9.463-3.332 806 806 0 0 1 3.969 23.906q-1.316.51-2.636 1.007a1051 1051 0 0 1-10.796-21.581m27.471 27.052a643 643 0 0 0-9.871-57.72 255 255 0 0 1-13.414 5.602 732 732 0 0 1 2.06 11.492 266 266 0 0 1-10.071 3.547 717 717 0 0 1-5.588-10.249 253 253 0 0 1-13.39 3.893 660 660 0 0 0 24.641 45.879 288 288 0 0 1-5.309 5.485l.644 2.293a311 311 0 0 0 30.298-10.222"/></g><g clip-path="url(#f)" transform="matrix(1.3333 0 0 -1.3333 -12.878 346.676)"><path fill="url(#g)" d="M194.74 135.76a280 280 0 0 0 5.094-3.92c.397-.312.598-.81.528-1.31l-3.699-26.274q5.451-.594 10.688-1.323l5.763 30.202a311 311 0 0 1-18.348 2.848z" style="fill:url(#g)"/></g><g clip-path="url(#h)" transform="matrix(1.3333 0 0 -1.3333 -12.878 346.676)"><path fill="url(#i)" d="m118.51 135.96.019-.144a274 274 0 0 0 5.896-2.559c.461-.205.776-.639.83-1.141l2.79-26.044q5.58.29 11.304.437l-.419 7.468q-.597 6.148-1.216 12.294a1.42 1.42 0 0 0 1.41 1.558c.627 0 1.194-.418 1.365-1.042a743 743 0 0 0 3.188-12.045 360 360 0 0 0 4.258-8.094 445 445 0 0 0 19.015-.278 360 360 0 0 0 4.332 8.27 680 680 0 0 0 3.521 12.027 1.42 1.42 0 0 0 1.639.977 1.416 1.416 0 0 0 1.124-1.541c-.447-4.095-.887-8.189-1.314-12.226l-.511-7.909q5.711-.323 11.253-.79l3.61 31.209c-7.395.82-14.892 1.38-22.322 1.666a451 451 0 0 1-7.973-19.689q-.703-4.795-1.362-9.594a1.416 1.416 0 0 0-1.403-1.223h-.006a1.416 1.416 0 0 0-1.398 1.235q-.619 4.803-1.281 9.602a448 448 0 0 1-7.905 19.754 312 312 0 0 1-28.444-2.178" style="fill:url(#i)"/></g><g clip-path="url(#j)" transform="matrix(1.3333 0 0 -1.3333 -12.878 346.676)"><path fill="url(#k)" d="M241.61 126.2a288 288 0 0 0 4.753-4.924 1.41 1.41 0 0 0 .19-1.69 661 661 0 0 1-12.181-21.613c3.4-.796 6.678-1.643 9.83-2.531a1069 1069 0 0 0 8.83 17.596 1.417 1.417 0 0 0 1.757.677q1.33-.5 2.651-1.012c.618-.239.987-.876.889-1.531a815 815 0 0 0-3.151-19.191 133 133 0 0 0 9.917-3.916 647 647 0 0 1 4.331 28.88 311 311 0 0 1-27.778 9.388z" style="fill:url(#k)"/></g><g clip-path="url(#l)" transform="matrix(1.3333 0 0 -1.3333 -12.878 346.676)"><path fill="url(#m)" d="M37.217 114.51a294 294 0 0 1-4.828-8.234l7.598-16.824c9.632 3.945 21.346 7.363 34.631 10.089a256 256 0 0 1-7.018 2.14 288 288 0 0 1-16.168-5.664 1.42 1.42 0 0 0-1.826.806l-2.747 7.011c-3.657-.411-7.34-.901-10.965-1.455a1.417 1.417 0 0 0-.782 2.698 304 304 0 0 0 22.856 8.925 1.43 1.43 0 0 0 1.082-.066c.337-.164.596-.457.718-.811l1.117-3.245a300 300 0 0 0 11.631 3.68l-1.896 6.567a280 280 0 0 1-10.324 2.934 311 311 0 0 1-23.079-8.551" style="fill:url(#m)"/></g><g clip-path="url(#n)" transform="matrix(1.3333 0 0 -1.3333 -12.878 346.676)"><path fill="url(#o)" d="M73.033 126.87q3.74-13.091 7.477-26.184c8.538 1.567 17.652 2.858 27.219 3.834.706.125 1.41.27 2.114.388l-1.186 7.275a289 289 0 0 1-16.591-3.29 1.42 1.42 0 0 0-1.696 1.064l-1.536 6.703a289 289 0 0 1-10.785-.359q-.037-.002-.075-.002a1.417 1.417 0 0 0-.369 2.783 303 303 0 0 0 31.786 6.792 314 314 0 0 0 5.043 9.072l-.063.477a311 311 0 0 1-41.338-8.553" style="fill:url(#o)"/></g></svg>