<svg xmlns="http://www.w3.org/2000/svg" width="24" height="28" viewBox="0 0 24 28"><title>Question Mark</title><path fill="#bbb" d="M14 21.5v-3c0-.281-.219-.5-.5-.5h-3c-.281 0-.5.219-.5.5v3c0 .281.219.5.5.5h3c.281 0 .5-.219.5-.5M18 11c0-2.86-3-5-5.687-5-2.547 0-4.454 1.094-5.797 3.328a.49.49 0 0 0 .125.656l2.062 1.563A.48.48 0 0 0 9 11.64c.14 0 .297-.063.39-.188.735-.937 1.048-1.219 1.344-1.437.266-.188.782-.375 1.344-.375 1 0 1.922.64 1.922 1.328 0 .812-.422 1.219-1.375 1.656-1.11.5-2.625 1.797-2.625 3.313v.562c0 .281.219.5.5.5h3c.281 0 .5-.219.5-.5 0-.36.453-1.125 1.188-1.547C16.375 14.281 18 13.375 18 11m6 3c0 6.625-5.375 12-12 12S0 20.625 0 14 5.375 2 12 2s12 5.375 12 12"/></svg>