<svg xmlns="http://www.w3.org/2000/svg" width="46" height="46" viewBox="0 0 46 46"><path fill="#000" d="M23 0C12.393 0 3.445 7.219.799 17h2.086a20.972 20.972 0 0 1 3.521-6.818c1.708.962 3.684 1.767 5.87 2.386A37.824 37.824 0 0 0 11.397 17h2.04c.202-1.376.48-2.69.808-3.938 2.41.532 5.017.846 7.754.909V17h2v-3.03c2.737-.062 5.344-.374 7.754-.906A36.14 36.14 0 0 1 32.562 17h2.04a37.824 37.824 0 0 0-.877-4.432c2.185-.62 4.16-1.423 5.869-2.386A20.972 20.972 0 0 1 43.115 17h2.086C42.555 7.219 33.607 0 23 0Zm-1 2.121v9.85a38.452 38.452 0 0 1-7.186-.838C16.455 6.213 19.062 2.768 22 2.12Zm2 0c2.938.647 5.545 4.092 7.186 9.012A38.446 38.446 0 0 1 24 11.97Zm-6.867.733c-1.76 1.855-3.235 4.537-4.297 7.787C10.924 10.1 9.2 9.42 7.723 8.627a20.997 20.997 0 0 1 9.41-5.773Zm11.734 0a20.997 20.997 0 0 1 9.41 5.773c-1.478.793-3.2 1.473-5.113 2.014-1.062-3.25-2.536-5.932-4.297-7.787ZM1 19l2.54 8h2.33l2.112-5.98 2.12 5.98h2.279l2.584-8H12.8l-1.633 5.588L9.303 19H6.748l-1.945 5.494L3.199 19Zm15.018 0 2.54 8h2.33L23 21.02 25.12 27h2.278l2.584-8h-2.164l-1.632 5.588L24.32 19h-2.554l-1.946 5.494L18.217 19Zm14.964 0 2.551 8h2.338l2.121-5.98L40.12 27h2.287L45 19h-2.172l-1.639 5.588L39.32 19h-2.565L34.8 24.494 33.189 19ZM.8 29C3.445 38.781 12.393 46 23 46s19.555-7.219 22.201-17h-2.086a20.972 20.972 0 0 1-3.521 6.818c-1.708-.962-3.684-1.767-5.87-2.386.365-1.4.666-2.877.878-4.432h-2.04a36.164 36.164 0 0 1-.808 3.938A40.373 40.373 0 0 0 24 32.029V29h-2v3.03c-2.737.062-5.344.374-7.754.906A36.14 36.14 0 0 1 13.437 29h-2.039c.212 1.555.513 3.031.877 4.432-2.185.62-4.16 1.423-5.869 2.386A20.972 20.972 0 0 1 2.885 29ZM22 34.03v9.849c-2.938-.647-5.545-4.092-7.186-9.012A38.446 38.446 0 0 1 22 34.03Zm2 0c2.542.062 4.96.354 7.186.837-1.642 4.92-4.248 8.365-7.186 9.012Zm-11.162 1.33c1.063 3.25 2.535 5.93 4.295 7.786a20.997 20.997 0 0 1-9.41-5.773c1.478-.793 3.202-1.473 5.115-2.014zm20.326 0c1.912.54 3.635 1.22 5.113 2.013a20.997 20.997 0 0 1-9.41 5.773c1.76-1.855 3.234-4.537 4.297-7.787z"/></svg>