<svg xmlns="http://www.w3.org/2000/svg" viewBox="0 0 58 58"><title>Citymapper</title><circle cx="31" cy="32" r="24" opacity=".07"/><circle cx="29" cy="29" r="24" fill="#37ab2e"/><path fill="transparent" d="M40.525 42.956c-4.82 4.158-11.59 5.478-17.665 3.439-6.078-2.04-10.577-7.136-11.75-13.306-.136-.724-.85-1.2-1.591-1.067-.743.133-1.234.827-1.096 1.55 1.35 7.112 6.541 12.99 13.547 15.34 1.6.539 3.24.872 4.888 1.012 5.566.473 11.191-1.275 15.482-4.975a1.307 1.307 0 0 0 .116-1.878 1.393 1.393 0 0 0-1.93-.115"/><path fill="#fff" d="M17.338 30.34c1.186 0 2.147-.96 2.147-2.144a2.147 2.147 0 0 0-2.147-2.146 2.147 2.147 0 1 0 0 4.29m23.062 0c1.185 0 2.147-.96 2.147-2.144a2.147 2.147 0 0 0-2.148-2.146 2.147 2.147 0 1 0 0 4.29Zm-10.18-.4h-6.463c-.885 0-1.599-.739-1.599-1.643 0-.903.714-1.64 1.6-1.64l6.462.012-1.99-2.062a1.67 1.67 0 0 1 0-2.31 1.574 1.574 0 0 1 2.272 0l4.684 4.843a1.666 1.666 0 0 1 0 2.313l-4.683 4.845a1.57 1.57 0 0 1-1.137.485c-.426 0-.83-.168-1.136-.484a1.675 1.675 0 0 1 0-2.312l1.99-2.048Z"/></svg>